<?xml version="1.0" standalone="no"?>
<!DOCTYPE svg PUBLIC "-//W3C//DTD SVG 20010904//EN"
 "http://www.w3.org/TR/2001/REC-SVG-20010904/DTD/svg10.dtd">
<svg version="1.0" xmlns="http://www.w3.org/2000/svg"
 width="1280.000000pt" height="755.000000pt" viewBox="0 0 1280.000000 755.000000"
 preserveAspectRatio="xMidYMid meet">
<metadata>
Created by potrace 1.15, written by Peter Selinger 2001-2017
</metadata>
<g transform="translate(0.000000,755.000000) scale(0.100000,-0.100000)"
fill="#ffd700" stroke="none">
<path d="M10184 7530 c-102 -27 -236 -92 -455 -223 -305 -182 -413 -220 -612
-215 l-118 2 -18 -39 c-20 -44 -109 -133 -158 -158 -81 -42 -185 -41 -246 4
l-28 20 -51 -46 c-122 -109 -336 -236 -499 -296 -98 -36 -245 -73 -349 -89
-80 -12 -400 -15 -442 -5 -22 6 -30 -1 -71 -67 -96 -153 -190 -233 -286 -245
-44 -5 -60 -1 -116 26 -75 37 -64 41 -205 -61 -199 -145 -260 -167 -573 -203
-277 -32 -315 -41 -491 -115 -189 -78 -217 -84 -339 -70 -120 15 -142 10 -326
-72 -77 -35 -732 -272 -1519 -550 l-1383 -488 -47 32 c-26 17 -119 88 -207
158 -193 153 -264 201 -364 248 -66 32 -86 36 -152 37 -66 0 -81 -3 -117 -28
-48 -31 -84 -81 -116 -162 -19 -46 -30 -59 -67 -78 -65 -33 -83 -65 -87 -151
-3 -49 2 -93 13 -132 29 -103 114 -259 131 -241 3 2 -16 56 -42 118 -39 94
-48 128 -52 194 -2 44 -2 78 1 75 3 -3 22 -57 41 -121 19 -63 56 -161 81 -217
26 -57 45 -105 43 -107 -18 -17 -227 -111 -307 -139 -196 -68 -359 -89 -553
-71 l-77 7 -8 -38 c-4 -22 -8 -77 -7 -124 0 -95 17 -139 75 -198 39 -40 83
-64 164 -88 91 -28 358 -26 520 5 145 27 284 61 384 96 41 14 80 25 87 25 6 0
54 -57 106 -128 268 -363 606 -705 989 -1004 664 -517 1547 -990 2764 -1481
1244 -502 2637 -874 3875 -1036 871 -114 1781 -120 2400 -16 398 67 794 204
1026 357 220 143 335 291 386 491 46 183 3 324 -146 473 -65 65 -98 89 -166
122 -146 70 -368 123 -660 156 -178 20 -1036 87 -1685 131 -731 49 -968 71
-1420 131 -1123 149 -2421 442 -3398 767 -945 315 -1656 645 -2377 1105 -213
136 -314 209 -371 269 -47 49 -94 112 -88 117 3 2 663 226 1594 540 l250 85
35 -26 c86 -63 326 -321 475 -508 87 -110 163 -206 169 -212 9 -10 108 21 456
141 789 273 1908 668 3045 1076 877 314 1219 437 1860 665 352 126 644 231
648 235 11 10 -31 254 -56 320 -41 111 -76 150 -209 229 -154 92 -160 106
-167 417 l-6 241 -28 36 c-82 108 -195 139 -353 97z m-6494 -5125 c0 -14 4
-25 8 -25 4 0 46 11 93 25 58 17 107 24 159 24 l75 0 -95 -36 c-150 -57 -234
-51 -271 19 -8 15 -6 18 11 18 15 0 20 -7 20 -25z"/>
</g>
</svg>
